<svg width="24" height="24" viewBox="0 0 24 24" fill="none" xmlns="http://www.w3.org/2000/svg">
    <path fill-rule="evenodd" clip-rule="evenodd" d="M14.1229 6.85266C14.0429 6.58239 14 6.29621 14 6C14 4.34315 15.3431 3 17 3C18.6569 3 20 4.34315 20 6C20 7.65685 18.6569 9 17 9C16.1802 9 15.4372 8.67119 14.8957 8.13825L9.87762 11.1491C9.95726 11.4189 10 11.7044 10 12C10 12.2959 9.95716 12.5818 9.87735 12.8518L14.8951 15.8624C15.4366 15.3291 16.1799 15 17 15C18.6569 15 20 16.3431 20 18C20 19.6569 18.6569 21 17 21C15.3431 21 14 19.6569 14 18C14 17.7041 14.0428 17.4183 14.1226 17.1483L9.1049 14.1376C8.56335 14.6709 7.82011 15 7 15C5.34315 15 4 13.6569 4 12C4 10.3431 5.34315 9 7 9C7.82045 9 8.56398 9.32935 9.10558 9.86306L14.1229 6.85266Z" fill="black"/>
</svg>
