<svg width="24" height="24" viewBox="0 0 24 24" fill="none" xmlns="http://www.w3.org/2000/svg">
    <g clip-path="url(#clip0)">
        <path d="M23.5216 6.18504C23.3859 5.67446 23.1185 5.20846 22.7462 4.8337C22.3738 4.45893 21.9095 4.18854 21.3998 4.04959C19.5234 3.54504 12.0234 3.54504 12.0234 3.54504C12.0234 3.54504 4.52344 3.54504 2.64707 4.04959C2.13737 4.18854 1.6731 4.45893 1.30073 4.8337C0.928354 5.20846 0.660943 5.67446 0.525256 6.18504C0.0234376 8.06959 0.0234375 11.9996 0.0234375 11.9996C0.0234375 11.9996 0.0234376 15.9296 0.525256 17.8141C0.660943 18.3247 0.928354 18.7907 1.30073 19.1655C1.6731 19.5402 2.13737 19.8106 2.64707 19.9496C4.52344 20.4541 12.0234 20.4541 12.0234 20.4541C12.0234 20.4541 19.5234 20.4541 21.3998 19.9496C21.9095 19.8106 22.3738 19.5402 22.7462 19.1655C23.1185 18.7907 23.3859 18.3247 23.5216 17.8141C24.0234 15.9296 24.0234 11.9996 24.0234 11.9996C24.0234 11.9996 24.0234 8.06959 23.5216 6.18504Z" fill="white"/>
        <path d="M9.57031 15.5684V8.43115L15.843 11.9998L9.57031 15.5684Z" fill="black"/>
    </g>
    <defs>
        <clipPath id="clip0">
            <rect width="24" height="24" fill="white"/>
        </clipPath>
    </defs>
</svg>
